<?xml version="1.0" encoding="UTF-8" standalone="no"?>
<svg xmlns:rdf="http://www.w3.org/1999/02/22-rdf-syntax-ns#" xmlns="http://www.w3.org/2000/svg" xml:space="preserve" height="91.396" viewBox="0 0 267.28477 91.396296" width="267.28" version="1.1" xmlns:cc="http://creativecommons.org/ns#" xmlns:xlink="http://www.w3.org/1999/xlink" xmlns:dc="http://purl.org/dc/elements/1.1/"><g transform="matrix(1.25 0 0 -1.25 1133 266.65)"><g style="" transform="matrix(1.1428 0 0 1.1428 -729.47 176.41)"><path d="m0 0c0-1.83-1.48-3.115-3.31-3.115s-3.31 1.285-3.31 3.115 1.48 3.116 3.31 3.116 3.31-1.286 3.31-3.116m-73.95-20.492h0.001c-0.002 0.084-0.005 0.169-0.005 0.26v15.031l-0.078 0.117-7.749-2.298v-0.195c0.195-0.077 0.545-0.311 0.701-0.467 0.662-0.467 1.051-0.973 1.051-2.336v-9.758c0-0.207-0.006-0.393-0.016-0.571h-0.015c0 0.006-0.001 0.012-0.001 0.018 0-0.006 0-0.012-0.001-0.018-0.006-0.112-0.014-0.219-0.024-0.321-0.156-1.03-1.042-1.821-2.116-1.821-0.12 0-0.237 0.012-0.352 0.031-0.009 0.002-0.018 0.001-0.027 0.003-0.029 0.005-0.056 0.016-0.085 0.023-0.103 0.024-0.205 0.049-0.302 0.087-0.003 0.001-0.005 0.003-0.008 0.004-0.725 0.289-1.255 0.961-1.339 1.766-0.001 0.007-0.001 0.015-0.002 0.023-0.006 0.066-0.01 0.133-0.01 0.202h-0.005c-0.01 0.177-0.016 0.364-0.016 0.57v9.758c0 1.709-0.358 3.146-1.28 4.077-0.718 0.726-1.778 1.145-3.28 1.145-2.531 0-4.906-1.675-5.997-3.427v-0.117c0.001 0.001 0.003 0.001 0.004 0.001v-0.005c0.506 0.195 1.207 0.351 1.83 0.351 0.895 0 1.547-0.214 1.975-0.68 0.427-0.468 0.631-1.187 0.631-2.198v-8.995c0-0.091-0.003-0.176-0.005-0.26-0.009-0.31-0.034-0.587-0.077-0.835-0.191-1.011-0.717-1.378-1.706-1.558v-0.212c-0.002 0-0.003 0-0.004-0.001v-0.055h0.004v-0.004h9.891l0.002 0.004h0.29 10.202v0.272c-1.269 0.247-1.962 0.69-2.082 2.389m-6.407 20.47c0-1.83 1.48-3.115 3.31-3.115s3.31 1.285 3.31 3.115c0 1.831-1.48 3.116-3.31 3.116s-3.31-1.285-3.31-3.116m-36.841-17.095-0.001 11.916-0.078 0.117-7.75-2.298v-0.195c0.195-0.077 0.546-0.311 0.701-0.467 0.662-0.467 1.033-0.973 1.033-2.336v-7.828c0-3.504 1.773-5.218 4.927-5.218 2.998 0 4.517 1.791 5.374 3.544v0.156c-0.506-0.273-1.09-0.429-1.791-0.429-1.792 0-2.415 0.857-2.415 3.038m21.441-3.375c-0.002 0.084-0.004 0.169-0.004 0.26v15.031l-0.079 0.117-7.749-2.298v-0.195c0.195-0.077 0.545-0.311 0.701-0.467 0.662-0.467 1.052-0.973 1.052-2.336v-9.758c0-0.193-0.006-0.368-0.015-0.535 0-0.012-0.001-0.024-0.002-0.036-0.007-0.127-0.016-0.247-0.028-0.36-0.172-1.011-1.05-1.782-2.11-1.782-0.016 0-0.031 0.002-0.047 0.002v0.004c-0.762 0.028-1.421 0.452-1.778 1.074-0.179 0.314-0.283 0.675-0.283 1.062h-0.002v0.26 15.248l-0.078 0.117-7.749-2.298v-0.195c0.195-0.077 0.545-0.311 0.701-0.467 0.662-0.467 1.051-0.973 1.051-2.336v-12.773h5.9 0.18 2.058 0.177 9.93v0.272c-1.26 0.223-1.779 0.73-1.826 2.389m42.543 14.513v0.311h-7.032v-0.311c1.437-0.117 2.214-0.855 2.214-2.37 0-0.933-0.466-2.293-0.583-2.526l-1.633-4.128 0.187-0.466 1.757 4.322c1.36 2.992 3.381 4.896 5.09 5.168m-10.632-1.593c0 0.893 0.699 1.476 1.748 1.593v0.311h-10.84v-0.311c1.399-0.233 2.254-1.127 3.225-3.381l5.867-13.91h0.466l2.876 6.683-2.72 6.8c-0.311 0.894-0.622 1.71-0.622 2.215m32.033-12.92c-0.002 0.084-0.005 0.169-0.005 0.26v15.031l-0.078 0.117-7.749-2.298v-0.195c0.195-0.077 0.545-0.311 0.701-0.467 0.662-0.467 1.051-0.973 1.051-2.336v-9.541c0-0.193-0.005-0.368-0.014-0.535 0-0.012-0.001-0.024-0.002-0.036-0.007-0.127-0.016-0.247-0.028-0.36-0.172-1.011-1.05-2.029-2.11-2.029h-0.047v-0.272h0.176 9.931v0.272c-1.26 0.223-1.779 0.73-1.826 2.389m7.252 15.107c-0.001 0.001-0.002 0.001-0.003 0.002-0.073 0.031-0.147 0.059-0.222 0.084-0.012 0.003-0.025 0.008-0.037 0.011-0.021 0.007-0.043 0.011-0.064 0.017-0.464 0.116-0.961 0.061-1.242 0.012-2.636-0.521-4.752-2.649-4.926-6.778h0.32s0.168 0.808 0.797 1.129c0.648 0.331 1.296 0.483 4.372 0.483 1.408 0 2.626 1.18 2.626 2.627 0 1.056-0.684 2.005-1.621 2.413m49.163-0.266v-0.311c1.438-0.117 2.215-0.855 2.215-2.37 0-0.933-0.466-2.293-0.583-2.526l-1.744-4.128 0.186-0.466 1.869 4.322c1.36 2.992 3.381 4.896 5.09 5.168v0.311h-7.033zm-0.906-9.611-2.196 5.492c-0.311 0.894-0.622 1.71-0.622 2.215 0 0.893 0.699 1.476 1.748 1.593v0.311h-0.069-7.182-0.07-3.519-0.07-1.549-0.015v6.365l-0.078 0.117-5.997-1.778v-4.704h-0.021-2.706v-0.54h2.716v-4.209l-0.004 0.007v-9.754c0-0.193-0.006-0.368-0.014-0.535l-0.003-0.036c-0.006-0.127-0.016-0.247-0.028-0.36-0.172-1.011-1.05-1.782-2.11-1.782-0.016 0-0.031 0.002-0.047 0.003v0.003c-0.762 0.028-1.421 0.452-1.778 1.074-0.102 0.178-0.176 0.373-0.224 0.578-0.024 0.15-0.044 0.309-0.057 0.484h0.001c-0.002 0.085-0.005 0.169-0.005 0.26v15.245l-0.078 0.116-7.749-2.297v-0.195c0.195-0.078 0.545-0.311 0.701-0.467 0.662-0.467 1.051-0.973 1.051-2.337v-9.54c0-0.207-0.006-0.394-0.016-0.571h-0.015c0 0.006-0.001 0.012-0.001 0.018 0-0.006-0.001-0.012-0.001-0.018-0.006-0.112-0.014-0.22-0.024-0.321-0.156-1.03-0.955-2.068-2.028-2.068v-0.272h10.246 0.154 2.029 6.101 1.8v0.272c-1.148 0.203-1.679 0.645-1.8 1.976v14.726h1.339c0.353-0.007 1.441-0.087 2.052-0.782 0.482-0.531 0.92-1.294 1.383-2.37l5.086-12.057c0.286-0.761 0.519-1.438 0.697-2.061l-0.753-1.743c-0.005-0.012-0.009-0.023-0.014-0.034-0.533-1.192-1.641-1.486-2.102-1.559-0.652-0.08-1.584-0.12-3.003-0.108-1.261 0.01-2.359-1.038-2.37-2.333-0.003-0.459 0.139-0.896 0.382-1.267 0.146-0.21 0.476-0.58 1.094-0.79 0.008-0.003 0.016-0.005 0.025-0.008 0.043-0.015 0.089-0.028 0.135-0.04 0.55-0.149 1.324-0.196 2.306 0.146 0.474 0.2 0.916 0.472 1.314 0.817 0.505 0.437 0.938 0.995 1.276 1.677 0.105 0.214 0.203 0.437 0.289 0.675l1.621 3.776 1.804 4.369 1.466 3.419-0.498 1.202zm-38.341 9.753c2.236-0.306 4.174-3.152 4.873-5.6h0.272l-0.194 5.207c-0.621 0.233-3.086 0.665-4.951 0.665v-0.272zm0.917-6.105c-1.826 1.127-3.808 2.098-3.808 3.885 0 1.322 1.108 2.017 1.885 2.212v0.272c-3.73-0.35-6.509-2.6-6.509-5.67 0-3.264 2.332-4.779 4.585-6.1 2.06-1.166 3.847-2.176 3.847-3.808 0-1.227-0.564-1.942-1.424-2.284-0.055-0.022-0.111-0.042-0.166-0.06-0.048-0.016-0.097-0.031-0.147-0.045-0.036-0.01-0.072-0.019-0.108-0.027-0.029-0.007-0.058-0.014-0.087-0.02-1.02-0.194-1.853 0.282-2.083 0.431-1.664 1.113-3.749 3.798-4.339 5.93h-0.272l0.194-5.557c0.859-0.381 2.681-0.841 4.274-0.995 0.003 0 0.007-0.001 0.011-0.001 1.571-0.179 2.763 0 2.763 0v0.004c3.843 0.427 6.202 2.497 6.202 6.082 0 2.565-2.254 4.197-4.818 5.751m-26.114-5.327c-0.895-1.247-2.298-2.142-4.712-2.142-3.114 0-5.237 1.882-5.56 5.785h9.814c0.719 5.254-2.412 7.9-6.796 8.111v-0.343c0.967-0.349 1.715-3.008 1.543-6.996l-4.586-0.432c-0.013 0.237-0.023 0.478-0.023 0.729 0 4.243 0.88 6.115 2.07 6.68l0.01 0.358c-4.734-0.674-8.194-4.286-8.194-9.531 0-4.517 2.843-8.762 8.568-8.762 5.374 0 7.593 4.206 8.1 6.387l-0.234 0.156zm-58.862 42.771c1.83 0 3.31 1.285 3.31 3.115 0 1.831-1.48 3.116-3.31 3.116s-3.31-1.285-3.31-3.116c0-1.83 1.48-3.115 3.31-3.115m82.522 3.115c0 1.831 1.48 3.116 3.31 3.116s3.31-1.285 3.31-3.116c0-1.83-1.48-3.115-3.31-3.115s-3.31 1.285-3.31 3.115m8.489-22.859v-0.272h-10.202v0.272c1.449 0.268 2.001 0.726 2.023 2.831v0.129 9.541c0 1.363-0.39 1.869-1.052 2.336-0.155 0.156-0.506 0.39-0.701 0.468v0.194l7.75 2.298 0.078-0.117v-14.72h0.002c0-2.181 0.701-2.687 2.102-2.96m-106.98 2.726c0.701 0 1.285 0.156 1.791 0.429v-0.156c-0.857-1.752-2.375-3.543-5.374-3.543-3.154 0-4.927 1.713-4.927 5.217v7.828c0 1.363-0.37 1.869-1.032 2.336-0.156 0.156-0.507 0.39-0.701 0.468v0.194l7.749 2.298 0.078-0.117 0.002-11.916c0-2.181 0.622-3.038 2.414-3.038m75.116-2.726v-0.272h-10.203-0.295-9.892v0.272c1.224 0.223 1.74 0.73 1.787 2.389 0.003 0.085 0.005 0.169 0.005 0.26v8.995c0 2.025-0.818 2.882-2.609 2.882-0.623 0-1.324-0.156-1.83-0.351v0.117c1.09 1.752 3.465 3.427 5.996 3.427 3.427 0 4.557-2.181 4.557-5.218v-9.758c0-0.176 0.005-0.337 0.012-0.492 0.001-0.027 0.003-0.052 0.004-0.079 0.009-0.155 0.02-0.302 0.037-0.437 0.202-0.973 1.064-1.704 2.097-1.704 1.073 0 1.96 0.79 2.115 1.82 0.01 0.102 0.019 0.209 0.025 0.321 0 0.007 0 0.013 0.001 0.019 0-0.006 0.001-0.012 0.001-0.019h0.015c0.009 0.178 0.016 0.365 0.016 0.571v9.758c0 1.363-0.39 1.869-1.051 2.336-0.156 0.156-0.507 0.39-0.701 0.468v0.194l7.749 2.298 0.078-0.117v-15.031c0-0.091 0.002-0.175 0.004-0.26 0.12-1.699 0.812-2.142 2.082-2.389m-8.49 22.859c0 1.831 1.48 3.116 3.31 3.116 1.831 0 3.31-1.285 3.31-3.116 0-1.83-1.479-3.115-3.31-3.115-1.83 0-3.31 1.285-3.31 3.115m-35.376-22.859v-0.272h-9.93-0.175-10.202-2.256-0.18-5.9v12.773c0 1.363-0.389 1.869-1.051 2.336-0.156 0.156-0.506 0.39-0.701 0.468v0.194l7.749 2.298 0.078-0.117v-15.248c0-0.016 0-0.112 0.001-0.26h0.001c0-0.386 0.104-0.748 0.283-1.061 0.369-0.645 1.063-1.08 1.859-1.08 1.013 0 1.861 0.704 2.083 1.65 0.037 0.158 0.059 0.322 0.059 0.491h0.004c0.001 0.301 0.001 0.519 0.001 0.571v9.758c0 1.363-0.389 1.869-1.051 2.336-0.156 0.156-0.506 0.39-0.701 0.468v0.194l7.749 2.298 0.078-0.117v-15.248c0-0.022 0.001-0.206 0.001-0.47 0.018-0.176 0.056-0.345 0.113-0.506 0.295-0.83 1.086-1.425 2.017-1.425 1.183 0 2.142 0.959 2.142 2.141h0.007c0.01 0.178 0.016 0.365 0.016 0.571v9.758c0 1.363-0.389 1.869-1.051 2.336-0.156 0.156-0.506 0.39-0.701 0.468v0.194l7.749 2.298 0.078-0.117v-15.031c0-0.091 0.003-0.175 0.005-0.26 0.047-1.659 0.566-2.166 1.826-2.389m21.802 0v-0.272h-9.93-0.306-9.892v0.272c1.223 0.223 1.74 0.73 1.787 2.389 0.002 0.085 0.004 0.169 0.004 0.26v8.995c0 2.025-0.817 2.882-2.609 2.882-0.623 0-1.324-0.156-1.83-0.351v0.117c1.091 1.752 3.466 3.427 5.997 3.427 3.427 0 4.556-2.181 4.556-5.218v-9.758c0-0.206 0.007-0.393 0.017-0.571h0.005c0-0.068 0.004-0.135 0.01-0.201 0-0.008 0.001-0.016 0.002-0.023 0.112-1.078 1.023-1.917 2.13-1.917 1.06 0 1.937 0.77 2.109 1.781 0.012 0.114 0.022 0.234 0.029 0.36 0 0.012 0.001 0.024 0.002 0.036 0.008 0.167 0.014 0.342 0.014 0.535v9.758c0 1.363-0.39 1.869-1.052 2.336-0.155 0.156-0.506 0.39-0.7 0.468v0.194l7.749 2.298 0.078-0.117v-15.031c0-0.091 0.002-0.175 0.005-0.26 0.047-1.659 0.565-2.166 1.825-2.389m71.312 2.006c0.39 0 0.779 0.156 0.974 0.273v-0.156c-0.506-1.324-1.986-2.726-4.439-2.726-1.475 0-2.549 0.484-3.214 1.423-0.528 0.747-0.797 1.782-0.797 3.094v3.894c0 0.481-0.023 0.931-0.057 1.364l-0.839-0.312c-0.662-0.273-1.519-0.623-1.908-1.169-0.39-0.584-0.623-1.479-0.623-2.375 0-2.414 0.545-3.193 1.713-3.193 0.206 0 0.439 0.036 0.647 0.091 0.225 0.059 0.42 0.14 0.521 0.221v-0.156c-0.2-0.601-0.949-1.618-2.119-2.269-0.651-0.362-1.429-0.613-2.32-0.613-2.921 0-4.439 1.947-4.439 4.361 0 0.872 0.196 1.619 0.477 2.213 0.725 1.206 2.224 1.737 2.816 1.906 0.081 0.021 0.164 0.043 0.25 0.065h-0.001l0.004 0.001c1.604 0.412 3.847 0.955 4.987 1.24v-0.002l0.818 0.211c-0.362 3.91-2.108 5.815-4.734 5.815-0.623 0-1.324-0.116-1.791-0.35v0.117c0.778 1.129 3.271 2.726 5.685 2.726 0.193 0 0.38-0.007 0.563-0.017 4.712-0.258 6.425-3.773 6.425-8.083v-5.958c0-1.169 0.467-1.636 1.401-1.636m-28.112 7.613c0-3.074-1.046-5.833-3.514-7.715h0.003c-0.005-0.003-0.01-0.006-0.014-0.009-0.739-0.562-1.605-1.044-2.608-1.434-0.872-0.351-1.719-0.577-2.508-0.716-0.028-0.005-0.055-0.012-0.082-0.017v0.002c-0.393-0.067-0.771-0.112-1.13-0.14-2.068-0.166-3.505 0.216-3.505 0.216v-3.755c0-2.025 0.818-2.765 2.532-3.037v-0.273l-8.645-2.563v2.643 6.907 2.661 9.995c0 1.402-0.351 1.869-1.052 2.376l-0.74 0.467v0.195l7.789 2.336 0.116-0.117v-12.773c0-1.207 0.156-2.57 0.896-3.582 0.262-0.377 0.596-0.667 0.964-0.89 0.101-0.062 0.205-0.118 0.312-0.169 0.158-0.076 0.321-0.141 0.487-0.194 0.223-0.061 0.457-0.096 0.699-0.096 0.647 0 1.237 0.233 1.7 0.616 0.337 0.311 1.021 1.174 1.461 3.29 0.241 1.165 0.374 2.519 0.374 3.985 0 4.984-1.441 7.399-4.4 7.399-0.623 0-1.153-0.117-1.62-0.351v0.117c0.779 1.129 3.1 2.726 5.514 2.726 5.14 0 6.971-3.622 6.971-8.1m46.395-3.875c-0.507-2.18-2.726-6.386-8.1-6.386-5.725 0-8.568 4.245-8.568 8.762 0 5.245 3.45 8.822 8.184 9.496v-0.323c-1.19-0.565-2.07-2.437-2.07-6.681 0-4.634 2.22-6.854 5.608-6.854 2.414 0 3.816 0.896 4.712 2.142l0.234-0.156zm-7.491 11.595v0.336c4.136 0.075 5.581-1.433 6.14-3.122 0.205-0.618 0.212-2.355-1.592-2.543-1.059-0.111-2.022 0.672-2.139 1.702-0.256 2.249-0.527 2.726-0.888 3.187s-1.521 0.44-1.521 0.44m-140.5-21.912c-0.377-0.72-1.158-1.595-2.242-2.295-1.544-0.998-3.632-1.778-5.775-1.778-0.278 0-0.554 0.01-0.827 0.028h-0.001c-0.073 0.005-0.146 0.01-0.219 0.016-2.183 0.171-3.879 0.703-6.209 1.448-3.133 0.991-4.878 1.467-6.741 1.467-1.23 0-2.102-0.243-2.657-0.521v0.204c0.335 0.641 1.02 1.353 1.932 1.996l0.003 0.002s3.773 2.783 4.225 3.123c0.451 0.339 0.969 0.725 1.203 0.914 0.234 0.19 0.505 0.47 0.606 0.565 1.594 1.502 2.487 4.497 2.487 10.619 0 6.215-0.95 10.609-3.919 12.272-0.594 0.317-1.386 0.503-2.059 0.582-0.057 0.006-0.116 0.013-0.173 0.018-0.165 0.014-0.322 0.024-0.452 0.024-0.266 0-0.52-0.04-0.76-0.082-0.475-0.079-1.386-0.344-1.94-0.819-1.821-1.386-2.85-4.355-2.85-10.926 0-6.176 0.99-10.57 3.919-12.273 0.633-0.316 1.386-0.554 2.059-0.633v-0.317c-8.472 0.357-13.698 5.582-13.698 12.747 0 7.836 6.566 11.992 12.502 12.588v0.001c0.003 0 0.005 0 0.008 0.001 0.214 0.018 0.432 0.033 0.655 0.039 0.237 0.006 0.479 0 0.725 0h0.005c8.472-0.317 13.737-5.542 13.737-12.708 0-5.407-3.095-9.042-6.957-10.995h0.002l-6.745-3.395c0.002 0.001 0.003 0.002 0.005 0.002 1.098 0.405 2.305 0.66 3.53 0.66 0.278 0 0.554-0.009 0.827-0.028h0.001c0.093-0.006 0.185-0.013 0.277-0.02 2.155-0.176 3.842-0.706 6.151-1.443 3.133-0.992 4.878-1.468 6.741-1.468 1.23 0 1.983 0.278 2.538 0.556l0.086-0.171z" fill="#08164e"/></g></g></svg>
