<svg xmlns="http://www.w3.org/2000/svg" viewBox="0 0 512 512"><path d="M256 26.483c-88.322 0-108.398 88.7-109.216 199.272-.034 4.6 2.669 8.744 6.813 10.68 15.607 7.293 43.341 12.93 64.886 16.28h75.034c21.544-3.35 49.279-8.988 64.886-16.28 4.142-1.935 6.847-6.079 6.813-10.68C364.398 115.182 344.322 26.483 256 26.483z" fill="#694b4b"/><path d="M146.784 225.754c-.034 4.6 2.669 8.744 6.813 10.68 15.607 7.293 43.341 12.93 64.886 16.28H256V123.586s-43.874 2.141-35.31 0c35.31-8.828 105.931-52.966 64.86-93.194-8.883-2.554-18.696-3.91-29.549-3.91-88.323.001-108.399 88.7-109.217 199.272z" fill="#5a4146"/><path d="M388.619 459.034V323.062a35.312 35.312 0 0 0-21.729-32.594l-62.283-25.951a15.602 15.602 0 0 1-9.601-14.402v-18.852h-78.012v18.852a15.603 15.603 0 0 1-9.601 14.402l-62.283 25.951a35.309 35.309 0 0 0-21.729 32.594v135.972h265.238z" fill="#d29b6e"/><path d="M366.89 290.468l-43.784-18.243c-16.119 19.453-32.1 34.13-46.014 44.888h-42.184c-13.913-10.759-29.895-25.436-46.014-44.888l-43.784 18.243a35.308 35.308 0 0 0-21.729 32.594v135.972H388.62V323.062a35.313 35.313 0 0 0-21.73-32.594z" fill="#ffdc64"/><path d="M128.448 305c-3.203 5.362-5.067 11.544-5.067 18.062v135.972h53.171V353.103L128.448 305zm255.104 0c3.203 5.362 5.067 11.544 5.067 18.062v135.972h-53.171V353.103L383.552 305z" fill="#ffc850"/><path d="M333.43 134.295l-5.726 62.977a31.201 31.201 0 0 1-15.922 24.452l-40.628 22.571a31.203 31.203 0 0 1-30.308 0l-40.628-22.571a31.204 31.204 0 0 1-15.922-24.452l-5.528-60.814c-.429-4.716 2.926-8.914 7.63-9.463 20.835-2.432 75.559-10.059 108.679-26.144 4.189-2.035 9.102-.394 11.424 3.642 3.797 6.599 10.804 15.829 22.298 21.303 3.18 1.515 4.95 4.991 4.631 8.499z" fill="#f0c087"/><path d="M503.172 485.517H8.828A8.829 8.829 0 0 1 0 476.689v-17.655a8.829 8.829 0 0 1 8.828-8.828h494.345a8.829 8.829 0 0 1 8.828 8.828v17.655a8.83 8.83 0 0 1-8.829 8.828z" fill="#f5dcb4"/><path d="M178.767 136.459l5.528 60.814a31.203 31.203 0 0 0 15.922 24.452l40.628 22.571c3.719 2.066 7.776 3.078 11.878 3.512l-11.433-28.58a52.983 52.983 0 0 1-3.605-15.272l-4.86-58.311c-.372-4.468 2.654-8.463 7.043-9.374 18.807-3.9 38.927-9.203 55.668-16.262 5.521 7.633 13.789 16.068 25.671 21.727 2.382 1.134 3.513 1.651 11.336 2.293l.885-9.736c.32-3.524-1.481-6.994-4.674-8.519-11.469-5.476-18.463-14.691-22.254-21.281-2.322-4.036-7.236-5.677-11.425-3.642-33.12 16.086-87.842 23.712-108.679 26.144-4.702.55-8.058 4.747-7.629 9.464z" fill="#e6af78"/><path d="M175.299 283.489c15.073 18.19 31.495 34.202 48.808 47.591l4.77 3.689h54.244l4.77-3.689c17.314-13.388 33.736-29.4 48.808-47.591l3.449-4.162-17.044-7.102c-16.119 19.453-32.1 34.13-46.014 44.888h-42.184c-13.913-10.759-29.895-25.436-46.014-44.888l-17.044 7.102 3.451 4.162z" fill="#ffc850"/><path d="M335.448 450.207H176.552c-9.751 0-17.655-7.904-17.655-17.655V326.621c0-9.751 7.904-17.655 17.655-17.655h158.897c9.751 0 17.655 7.904 17.655 17.655v105.931c-.001 9.751-7.905 17.655-17.656 17.655z" fill="#d5dced"/><circle cx="256" cy="379.586" r="17.655" fill="#fff"/></svg>