<svg xmlns="http://www.w3.org/2000/svg" viewBox="0 0 512 512"><path fill="#5b5d6e" d="M317.793 410.483H194.207l-8.828 79.448h141.242z"/><path fill="#464655" d="M320.736 436.966l-2.943-26.483H194.207l-2.943 26.483z"/><path d="M494.345 419.31H17.655C7.904 419.31 0 411.406 0 401.655V83.862c0-9.751 7.904-17.655 17.655-17.655h476.69c9.751 0 17.655 7.904 17.655 17.655v317.793c0 9.751-7.904 17.655-17.655 17.655z" fill="#707487"/><path d="M194.909 66.207c4.294 29.934 29.97 52.966 61.091 52.966s56.798-23.031 61.091-52.966H194.909z" fill="#5b5d6e"/><path d="M476.69 392.828H35.31A8.829 8.829 0 0 1 26.482 384V101.517a8.829 8.829 0 0 1 8.828-8.828h441.38a8.829 8.829 0 0 1 8.828 8.828V384a8.83 8.83 0 0 1-8.828 8.828z" fill="#e4eaf8"/><path d="M485.517 242.759H291.31V92.69h185.38a8.829 8.829 0 0 1 8.828 8.828v141.241z" fill="#7df5a5"/><path d="M485.517 242.759H291.31v150.069h185.38a8.829 8.829 0 0 0 8.828-8.828V242.759z" fill="#00c3ff"/><path d="M291.31 392.828h-256A8.829 8.829 0 0 1 26.482 384V101.517a8.829 8.829 0 0 1 8.828-8.828h256v300.139z" fill="#ffdc64"/><path d="M344.276 498.759H167.724c-4.879 0-8.828-3.948-8.828-8.828s3.948-8.828 8.828-8.828h176.552c4.879 0 8.828 3.948 8.828 8.828s-3.949 8.828-8.828 8.828z" fill="#707487"/><path d="M238.345 392.828v-22.585a17.656 17.656 0 0 0-12.072-16.749l-28.821-9.607a17.656 17.656 0 0 1-12.072-16.749v-22.585h-52.966v22.585a17.656 17.656 0 0 1-12.072 16.749l-28.821 9.607a17.655 17.655 0 0 0-12.074 16.749v22.585h158.898z" fill="#d29b6e"/><path d="M226.273 353.493l-28.821-9.608c-1.731-.577-3.308-1.431-4.734-2.461-8.097 9.751-20.158 16.093-33.822 16.093-13.664 0-25.725-6.342-33.821-16.093-1.426 1.03-3.002 1.885-4.734 2.461l-28.821 9.608a17.655 17.655 0 0 0-12.073 16.749v22.585h158.897v-22.585a17.653 17.653 0 0 0-12.071-16.749z" fill="#959cb5"/><g fill="#694b4b"><ellipse cx="158.897" cy="167.724" rx="35.31" ry="30.897"/><ellipse cx="158.897" cy="229.517" rx="70.621" ry="66.207"/></g><path d="M175.96 165.337c-5.474-1.276-11.169-2.027-17.064-2.027-39.002 0-70.621 29.642-70.621 66.207 0 31.398 23.338 57.632 54.621 64.436v-53.401c.001-38.241 18.414-62.171 33.064-75.215z" fill="#5a4146"/><path d="M203.411 299.949l-28.723 14.361a35.314 35.314 0 0 1-31.583 0l-28.723-14.361a17.655 17.655 0 0 1-9.623-13.601l-5.362-42.893a8.814 8.814 0 0 1 8.192-9.901c16.454-1.077 50.767-5.207 71.922-21.047 3.567-2.671 8.547-2.201 11.596 1.05l24.542 26.174a8.826 8.826 0 0 1 2.319 7.133l-4.936 39.484a17.644 17.644 0 0 1-9.621 13.601z" fill="#f0c087"/><path d="M215.65 239.731l-24.543-26.174c-.814-.87-1.783-1.506-2.809-1.971-.337-.152-.703-.184-1.054-.292-.713-.218-1.43-.413-2.17-.445-.632-.026-1.26.055-1.886.168-.318.057-.641.06-.953.152-.953.286-1.881.708-2.721 1.337-21.191 15.866-55.588 19.983-72.008 21.053-5.113.333-8.742 4.812-8.106 9.896l5.362 42.892a17.657 17.657 0 0 0 9.623 13.602l28.723 14.361c4.289 2.144 8.919 3.178 13.58 3.473l-10.783-21.567a44.153 44.153 0 0 1-4.66-19.741V253.74c0-4.109 2.849-7.597 6.836-8.594 12.089-3.022 24.524-7.443 35.322-13.997l19.371 20.66c2.862 3.053 6.91 6.528 13.806 6.196l1.393-11.142a8.844 8.844 0 0 0-2.323-7.132z" fill="#e6af78"/><path d="M414.897 353.103h-52.966c-9.751 0-17.655 7.904-17.655 17.655v22.069h88.276v-22.069c0-9.751-7.904-17.655-17.655-17.655z" fill="#ffdc64"/><path d="M388.414 366.345c-7.313 0-13.241-5.929-13.241-13.241v-13.241h26.483v13.241c-.001 7.312-5.93 13.241-13.242 13.241z" fill="#d29b6e"/><path d="M389.929 348.69H386.9c-4.682 0-9.173-1.86-12.484-5.171l-7.313-7.313a17.654 17.654 0 0 1-5.171-12.484v-27.998c0-9.751 7.904-17.655 17.655-17.655h17.655c9.751 0 17.655 7.904 17.655 17.655v27.998c0 4.682-1.86 9.173-5.171 12.484l-7.313 7.313a17.66 17.66 0 0 1-12.484 5.171z" fill="#f0c087"/><path d="M397.241 278.069h-17.655c-9.751 0-17.655 7.904-17.655 17.655v8.828s26.483 0 52.966-8.828c0-9.751-7.904-17.655-17.656-17.655z" fill="#694b4b"/><path d="M414.897 203.034h-52.966c-9.751 0-17.655 7.904-17.655 17.655v22.069h88.276V220.69c0-9.752-7.904-17.656-17.655-17.656z" fill="#707487"/><path d="M388.414 216.276c-7.313 0-13.241-5.929-13.241-13.241v-13.241h26.483v13.241c-.001 7.312-5.93 13.241-13.242 13.241z" fill="#d29b6e"/><path d="M389.929 198.621H386.9c-4.682 0-9.173-1.86-12.484-5.171l-7.313-7.313a17.654 17.654 0 0 1-5.171-12.484v-27.998c0-9.751 7.904-17.655 17.655-17.655h17.655c9.751 0 17.655 7.904 17.655 17.655v27.998c0 4.682-1.86 9.173-5.171 12.484l-7.313 7.313a17.66 17.66 0 0 1-12.484 5.171z" fill="#f0c087"/><path d="M397.241 128h-17.655c-9.751 0-17.655 7.904-17.655 17.655v8.828s26.483 0 52.966-8.828c0-9.751-7.904-17.655-17.656-17.655z" fill="#694b4b"/><path d="M256 119.172c13.152 0 25.306-4.148 35.31-11.157V92.69h-85.911c11.148 15.992 29.621 26.482 50.601 26.482z" fill="#ffc850"/><path d="M291.31 108.015a61.983 61.983 0 0 0 15.29-15.326h-15.29v15.326z" fill="#64dca0"/><circle cx="256" cy="57.379" r="44.138" fill="#959cb5"/><circle cx="256" cy="57.379" r="17.655" fill="#464655"/></svg>