<svg xmlns="http://www.w3.org/2000/svg" height="70.131" width="226.35" viewBox="0 0 226.349 70.131"><path d="M1.063 7.117h54.54v55.905H1.064V7.117z" fill="#fff"/><path d="M28.313 10.927H51.79V59.51H28.313V10.927z" fill="#ed1a3b"/><path d="M58.754 58.457h166.6" stroke="#ec1a3b" stroke-width="1.063" fill="none"/><path d="M79.864.937c-.352.415-.894.99-1.66 1.213.096.511-.095 1.117-.542 2.266l-3.254 8.615c-1.34 3.574-2.234 5.648-2.808 7.116-.448 1.148-1.15 1.498-1.914 1.562l-1.053.096c-.192.158-.129.671.063.799.86-.032 2.01-.096 3.062-.096 1.5.032 2.49.032 3.32.096.288-.128.287-.64.063-.8l-1.053-.095c-.766-.064-.926-.254-.926-.637 0-.35.225-1.212.704-2.648l1.115-3.352c.223-.67.415-.765 1.213-.765h4.818c.958 0 1.086.095 1.309.797l1.404 4.341c.255.765.416 1.34.416 1.692 0 .318-.447.508-1.117.572l-.926.096c-.224.159-.19.671.064.799.925-.032 2.137-.096 3.668-.096 1.437 0 2.554.032 3.862.096.16-.128.223-.64 0-.8l-.862-.095c-1.372-.159-1.788-.638-2.713-3.383L81.747 5.5c-.479-1.405-.99-2.872-1.405-4.276-.063-.222-.287-.287-.478-.287zm91.029 1.664c-3.063 0-5.802.824-7.952 2.502-2.237 1.738-3.71 4.534-3.71 7.803 0 3.799 1.826 6.48 4.181 8.1 2.15 1.442 4.683 1.972 7.334 1.972 1.884 0 4.004-.441 4.653-.677a5.995 5.995 0 0 1 1.03-.293c.443-.56 1.207-2.504 1.413-4.036-.118-.206-.559-.264-.764-.117-.677 1.738-2.357 4.211-6.156 4.211-4.83 0-8.746-3.418-8.746-9.601 0-6.097 3.829-8.952 8.334-8.952 4.27 0 5.596 2.297 6.037 4.3.206.177.647.147.795-.06a61.086 61.086 0 0 1-.412-4.33c-.265.03-.47-.03-.824-.117-1.384-.383-3.622-.705-5.213-.705zm16.369 0c-.323.383-.823.911-1.53 1.118.088.47-.089 1.03-.502 2.09l-3.003 7.953c-1.237 3.298-2.06 5.21-2.59 6.566-.413 1.06-1.062 1.384-1.768 1.443l-.97.088c-.177.148-.118.619.058.737.795-.03 1.854-.088 2.826-.088 1.384.03 2.296.029 3.063.088.265-.118.265-.59.058-.737l-.97-.088c-.708-.058-.856-.236-.856-.59 0-.323.206-1.118.649-2.443l1.03-3.092c.207-.618.385-.707 1.12-.707h4.447c.884 0 1.001.088 1.207.737l1.297 4.005c.235.707.381 1.235.381 1.56 0 .294-.413.471-1.031.53l-.854.088c-.206.148-.176.619.059.737.855-.03 1.974-.088 3.389-.088 1.311 0 2.336.03 3.529.088h.033l.002-.002a48.054 48.054 0 0 1 3.027-.086c1.09 0 2.12.028 3.446.087.206-.147.236-.5.06-.736l-.914-.088c-.736-.058-1.296-.235-1.502-.558-.471-.884-.53-4.714-.53-6.098v-6.42c0-.884.029-1.562.147-1.914h.059c.619.647 2.62 3.064 3.416 3.977l6.832 7.773c2.562 2.915 3.417 3.947 3.77 4.447.324 0 .501-.146.56-.324-.088-.765-.088-4.27-.088-5.154v-7.037c0-1.355-.059-5.007.441-6.067.118-.236.706-.471 1.649-.619l.412-.058c.177-.178.178-.59-.059-.737a46.007 46.007 0 0 1-3.033.088c-1.12 0-2.12-.029-3.474-.088-.235.088-.266.559-.061.737l.502.058c1.177.148 1.649.325 1.826.59.559.884.59 4.71.59 6.096v6.3c0 .62-.002 1.091-.12 1.239h-.058c-1.384-1.414-2.857-3.034-4.86-5.33l-2.855-3.21c-.942-1.09-4.448-4.979-5.037-6.48a9.522 9.522 0 0 1-1.353.088c-.53 0-2.09 0-3.328-.088-.235.118-.237.559-.061.736l.502.06c.706.087 1.415.294 1.826.706.619.678.649 1.297.649 2.121v8.51c0 1.414.027 5.006-.385 6.066-.146.324-.618.531-1.295.59l-.748.082-.75-.082c-1.266-.147-1.649-.588-2.504-3.12l-4.04-11.84c-.443-1.296-.914-2.65-1.297-3.946-.059-.205-.266-.264-.443-.264zM91 2.982c-.237.118-.266.559-.12.737l.473.058c1.796.294 2.032.678 1.973 2.533a307.29 307.29 0 0 1-.322 6.569 184.854 184.854 0 0 1-.502 6.476c-.177 2.063-.589 2.269-1.826 2.416l-.649.088c-.176.148-.118.589.059.737a52.574 52.574 0 0 1 3.004-.088c1.12 0 2.268.029 3.27.088.205-.09.235-.56.028-.737l-1.117-.088c-1.149-.087-1.326-.56-1.326-2.74 0-2.502.118-5.124.205-6.92.089-1.707.177-3.416.295-5.242h.059c.647 1.355 1.266 2.887 1.884 4.242l2.65 5.684c.678 1.442 2.093 4.327 2.593 5.889.06.087.206.119.265.119.119 0 .236-.032.295-.12.53-1.354 1.855-4.123 3.18-6.714l2.62-5.153c.59-1.147 1.709-3.504 1.915-3.828h.059l.087 12.28c0 1.884.001 2.356-1.44 2.503l-.856.088c-.178.176-.146.589.06.736a77.379 77.379 0 0 1 3.563-.087c1.06 0 2.267.028 3.474.087.205-.117.235-.56.059-.736l-.942-.088c-1.385-.147-1.354-.912-1.443-2.385-.235-4.24-.265-9.689-.324-12.81-.029-2.062.205-2.593 2.06-2.8l.62-.058c.147-.119.146-.619-.03-.736a43.3 43.3 0 0 1-2.62.088c-.59 0-1.209 0-2.21-.088-.059 1.354-.883 2.974-2.238 5.654l-2.76 5.625c-.736 1.5-1.473 3.033-2.268 4.418h-.058c-.708-1.297-1.354-2.652-2.032-4.036L97.31 7.841c-.912-1.885-1.649-3.712-1.53-4.86-.972.088-1.769.088-2.446.088a33.73 33.73 0 0 1-2.326-.088zm25.148 0c-.178.088-.236.618-.059.737l.473.058c1.737.206 1.795.649 1.795 3.711V18.09c0 3.093-.148 3.534-1.827 3.682l-.97.088c-.178.176-.12.647.058.736 1.738-.06 2.74-.09 4.006-.09h2.649c2.62 0 5.242.03 7.892.09.383-.795 1.12-3.063 1.326-4.094-.117-.265-.53-.353-.736-.207-.766 1.531-1.562 2.562-2.092 2.857-.647.324-1.5.442-3.767.442-2.591 0-3.211-.324-3.565-.678-.471-.5-.56-1.501-.56-3.062V13.7c0-.765.089-.795.972-.795h1.707c1.15 0 1.857.031 2.268.149.59.147.796.589.914 1.119l.266 1.148c.147.177.646.177.763-.029 0-.647-.117-1.768-.117-2.828 0-1.12.117-2.267.117-2.975-.117-.206-.616-.205-.763-.027l-.237 1.207c-.146.736-.353.912-.707 1.03s-1.266.177-2.504.177h-1.707c-.883 0-.972 0-.972-.824v-5.89c0-1.12 0-1.179.884-1.179h2.12c1.296 0 2.238.029 2.857.176 1.531.383 1.797 1.415 2.238 2.8.148.175.62.115.737-.061-.118-1.297-.296-3.416-.473-3.916-.353.087-2.09.087-3.975.087h-5.535a71.32 71.32 0 0 1-3.476-.087zm22.295 0c-2.887 0-4.918.089-6.567.237-.236.117-.235.588-.029.736l.941.117c1.208.148 1.297.648 1.297 3.445V18.09c0 3.093-.058 3.476-1.767 3.682l-.737.088c-.176.206-.117.647.059.736a81.487 81.487 0 0 1 3.682-.088c1.178 0 2.178.03 3.503.088.177-.089.235-.589.06-.736l-.618-.088c-1.708-.235-1.768-.59-1.768-3.682v-3.71c0-.62.06-.647 1.385-.647 1.178 0 1.647.293 2.09.941.912 1.325 2.122 3.358 2.887 4.448 2.09 2.975 3.592 3.71 6.095 3.71.56 0 1.032-.06 1.297-.148a.25.25 0 0 0 .072-.1 82.489 82.489 0 0 1 3.25-.076c1.178 0 2.18.03 3.653.088.176-.089.236-.619.058-.736l-.736-.088c-1.737-.206-1.797-.618-1.797-3.74V7.547c0-3.121.06-3.622 1.797-3.77l.736-.058c.178-.119.118-.65-.058-.737a85.77 85.77 0 0 1-3.653.088 85.8 85.8 0 0 1-3.71-.088c-.177.088-.235.618-.059.737l.736.058c1.738.148 1.797.649 1.797 3.77V18.03c0 3.122-.06 3.534-1.797 3.74l-.736.088c-.074.074-.1.202-.1.33-.592-.132-1.125-.398-1.515-.742-2.001-1.679-3.564-4.034-5.92-7.834-.148-.235-.293-.531-.147-.707 1.473-.589 3.68-2.119 3.68-4.916 0-2.061-1.03-3.389-2.443-4.125-1.355-.736-3.093-.883-4.918-.883zm-.03.914c3.27 0 4.711 2.21 4.711 4.535 0 2.003-.676 3.033-1.472 3.65-.854.65-1.972.766-3.032.766-1.502 0-1.944-.057-2.033-.146-.087-.117-.088-.443-.088-.973v-6.89c0-.825.088-.942 1.914-.942zm-59.637.934h.063c.191.382.48 1.243.734 2.01l1.725 5.2c.286.862.222.991-.703.991H76.67c-.893 0-.925-.034-.67-.767l2.01-5.551c.351-.958.671-1.724.767-1.883zm107.48 1.363h.059c.176.353.441 1.148.678 1.856l1.59 4.798c.265.795.206.915-.649.915h-3.621c-.825 0-.854-.03-.62-.708l1.856-5.123c.325-.883.619-1.592.707-1.738zM4.997 10.922v48.584h26.148L28.44 56.5V10.922H4.997zM59.9 31.942c-.192.096-.255.638-.064.765l.799.065c1.85.16 1.914.7 1.914 4.02v7.529c0 3.797.797 6.127 2.488 7.53 1.564 1.34 3.764 1.757 5.967 1.757 2.361 0 4.722-.83 6.094-2.33 1.787-1.914 2.234-4.85 2.234-7.625v-3.608c0-1.787-.031-5.455.447-6.508.16-.415.799-.701 1.596-.765l.764-.065c.16-.19.194-.605-.063-.765-1.148.063-2.01.095-3.35.095-1.243 0-2.425-.031-3.638-.095-.191.127-.254.542-.062.765l.796.065c.798.064 1.372.287 1.596.67.543.957.608 4.624.608 6.603v3.67c0 4.85-1.756 8.488-6.383 8.488-4.881 0-6.479-3.382-6.479-8.52v-6.892c0-3.318.065-3.86 1.916-4.02l.766-.064c.191-.127.128-.67-.065-.765a90.258 90.258 0 0 1-3.923.095c-1.277 0-2.362-.031-3.957-.095zm130.29.75a.675.675 0 0 0-.28.054c-.206 1.178-.647 3.064-1.118 4.389.117.236.53.383.766.205.323-.736.616-1.384 1.324-2.031.736-.677 2.355-.734 3.62-.734h1.622c.884 0 .883.027.883.941v13.162c0 3.092-.148 3.534-1.826 3.682l-1.061.09c-.235.147-.176.647 0 .736 1.885-.06 2.916-.09 4.094-.09 1.177 0 2.18.03 3.86.09.175-.089.235-.62.058-.737l-.944-.09c-1.707-.176-1.765-.589-1.765-3.681V35.574c0-.972-.03-1.002.853-1.002h2.092c1.62 0 2.739.235 3.416.736.441.324.648 1.412.736 2.149.147.177.647.177.764-.059-.06-.606.024-1.913.184-3.068l.7.125c.885.147 1.326.294 2.327 2.238l3.475 6.773c.853 1.65.943 2.033.943 3.653v1.502c0 3.15-.06 3.562-1.768 3.738l-.914.09c-.176.176-.115.647.061.736 1.561-.059 2.62-.09 3.857-.09 1.178 0 2.18.031 4.004.09.178-.089.237-.56.06-.736l-1.118-.09c-1.592-.118-1.768-.588-1.768-3.738v-1.534c0-2.267.06-2.56 1.385-4.769l1.853-3.209c1.473-2.532 2.358-4.418 3.89-4.654l.823-.147c.207-.177.177-.589-.058-.736-1.001.058-1.826.088-2.739.088s-1.768-.03-2.828-.088c-.235.117-.265.53-.058.736l.529.059c.708.087 1.238.295 1.238.472 0 .353-1.089 2.355-1.914 3.887a110.392 110.392 0 0 1-2.767 4.977c-1.15-2.033-2.24-4.359-3.33-6.537-.147-.295-.913-1.974-.913-2.268 0-.236.207-.355 1.239-.531l.383-.059c.176-.177.175-.65-.09-.736-.737.058-1.797.088-3.15.088a55.13 55.13 0 0 1-3.225-.08c.043-.228.084-.476.133-.658-.06-.117-.383-.146-.532-.086-.441.764-.707.824-2.297.824H192.97c-1.353 0-2.325.028-2.502-.914-.044-.045-.161-.059-.279-.055zm-15.912.498c-3.827 0-6.007 2.265-6.007 5.064 0 2.414 1.709 4.092 3.181 5.065l2.797 1.826c2.15 1.385 2.416 2.827 2.416 4.123 0 1.766-1.208 3.387-3.682 3.387-3.416 0-4.623-2.888-5.064-4.39-.119-.176-.56-.115-.707.09.06 1.386.441 3.475.795 4.124.559.323 2.12 1.088 4.594 1.088 3.827 0 6.273-2.209 6.273-5.448 0-2.797-1.827-4.506-3.682-5.654l-2.355-1.473c-1.09-.707-2.504-1.913-2.504-3.62 0-1.356.618-3.27 3.504-3.27 2.827 0 3.623 1.914 4.006 3.328.147.176.619.087.736-.09 0-1.236-.266-2.885-.531-3.592-.236 0-.648-.089-1.031-.176-.765-.236-1.825-.382-2.739-.382zm-91.285.383c-.236.117-.234.558-.058.736l.5.058c.706.088 1.414.295 1.826.707.618.678.648 1.296.648 2.12v8.511c0 1.414.03 5.007-.382 6.067-.148.323-.62.529-1.297.588l-.795.09c-.176.176-.148.588.058.736a48.04 48.04 0 0 1 3.063-.09c1.09 0 2.12.03 3.447.09.206-.148.235-.5.059-.737l-.914-.09c-.737-.058-1.296-.234-1.502-.558-.472-.884-.53-4.712-.53-6.096v-6.42c0-.883.028-1.561.147-1.914h.06c.62.648 2.62 3.062 3.416 3.975l6.83 7.775c2.563 2.915 3.418 3.946 3.772 4.446.324 0 .499-.145.559-.323-.09-.765-.088-4.27-.088-5.154v-7.04c0-1.354-.059-5.004.441-6.064.118-.236.708-.471 1.65-.619l.41-.058c.178-.178.178-.59-.058-.737a46.685 46.685 0 0 1-3.033.086c-1.12 0-2.121-.027-3.475-.086-.236.088-.265.56-.058.737l.5.058c1.177.148 1.648.323 1.826.588.559.884.59 4.71.59 6.096v6.303c0 .618-.002 1.088-.12 1.236h-.058c-1.379-1.414-2.851-3.035-4.853-5.331l-2.855-3.21c-.943-1.089-4.448-4.976-5.038-6.478a9.645 9.645 0 0 1-1.353.086c-.53 0-2.092.001-3.328-.086zm22.973 0c-.176.087-.236.617-.06.736l.736.058c1.738.148 1.797.649 1.797 3.77V48.62c0 3.12-.06 3.533-1.797 3.738l-.736.09c-.176.176-.116.647.06.736a85.993 85.993 0 0 1 3.711-.09c1.178 0 2.178.031 3.65.09.177-.088.236-.618.06-.736l-.737-.09c-1.738-.205-1.795-.618-1.795-3.738V38.137c0-3.121.057-3.622 1.795-3.77l.736-.058c.177-.119.118-.65-.058-.736a86.76 86.76 0 0 1-3.65.085 85.59 85.59 0 0 1-3.712-.085zm8.157 0c-.237.147-.267.558-.06.736l.53.058c1.267.148 1.708.764 2.385 2.415l5.18 12.78a29.467 29.467 0 0 1 1.356 3.917c.147.06.295.087.441.087a.584.584 0 0 0 .324-.087c.5-1.56 1.884-4.977 3.063-7.686l1.592-3.623c1.325-3.004 2.471-5.388 3.296-6.773.383-.618.824-.97 1.532-1.03l.44-.029.233.03c1.738.206 1.797.646 1.797 3.708v10.602c0 3.093-.147 3.534-1.826 3.682l-.97.09c-.178.176-.12.647.058.736 1.738-.059 2.738-.09 4.004-.09h2.65c2.622 0 5.242.031 7.893.09.382-.795 1.12-3.062 1.326-4.094-.119-.265-.53-.353-.736-.207-.766 1.533-1.562 2.562-2.092 2.856-.647.325-1.502.443-3.77.443-2.59 0-3.208-.324-3.562-.678-.471-.5-.559-1.5-.559-3.062v-4.152c0-.765.087-.795.971-.795h1.707c1.149 0 1.855.03 2.268.148.59.146.795.587.914 1.117l.264 1.149c.148.176.648.177.765-.028 0-.648-.117-1.768-.117-2.828 0-1.12.117-2.267.117-2.974-.117-.207-.617-.207-.765-.03l-.235 1.207c-.147.737-.353.914-.707 1.032-.354.117-1.266.175-2.504.175h-1.707c-.884 0-.97.001-.97-.824v-5.89c0-1.119-.002-1.178.88-1.178h2.121c1.297 0 2.24.03 2.858.178 1.531.382 1.797 1.413 2.238 2.796.148.177.617.118.735-.058-.118-1.296-.294-3.416-.471-3.916-.353.087-2.09.086-3.975.086h-5.537a68.29 68.29 0 0 1-2.9-.072c-.005-.004-.007-.011-.012-.014-.086.005-.168.003-.254.008-.108-.005-.196-.003-.308-.008-.006.003-.008.014-.014.017a46.379 46.379 0 0 1-5.342-.017c-.206.117-.265.559-.059.736l.53.059c1.03.117 1.326.353 1.326.558 0 .207-.03.53-.266 1.149-.5 1.266-1.854 4.593-2.738 6.595-.647 1.562-1.914 4.597-2.828 6.54-1.473-3.357-2.827-6.744-4.182-10.16-.912-2.24-1.414-3.828-1.472-4.123.028-.235.266-.412 1.384-.559l.442-.059c.206-.177.147-.618-.059-.736a71.299 71.299 0 0 1-3.562.086c-1.266 0-2.21-.027-3.063-.086zm41.902 0c-2.887 0-4.917.086-6.567.234-.235.117-.235.589-.03.736l.944.117c1.206.148 1.295.65 1.295 3.448v10.57c0 3.092-.059 3.476-1.767 3.681l-.737.09c-.177.206-.119.647.059.736a81.519 81.519 0 0 1 3.681-.09c1.178 0 2.18.031 3.504.09.177-.088.236-.588.059-.736l-.62-.09c-1.707-.235-1.765-.589-1.765-3.681v-3.71c0-.618.06-.648 1.385-.648 1.179 0 1.649.295 2.09.942.914 1.326 2.12 3.358 2.886 4.447 2.09 2.975 3.592 3.71 6.096 3.71.559 0 1.03-.058 1.295-.146.148-.118.119-.353-.027-.412-.796-.059-1.533-.383-2.033-.826-2.003-1.677-3.564-4.034-5.92-7.834-.147-.235-.294-.529-.147-.705 1.473-.589 3.682-2.12 3.682-4.918 0-2.061-1.032-3.387-2.445-4.123-1.354-.735-3.092-.883-4.918-.883zm25.082 0c-.177.087-.235.617-.059.736l.736.058c1.738.148 1.795.649 1.795 3.77V48.62c0 3.12-.057 3.533-1.795 3.738l-.736.09c-.176.176-.118.647.059.736a85.993 85.993 0 0 1 3.71-.09c1.178 0 2.178.031 3.65.09.178-.088.238-.618.061-.736l-.736-.09c-1.737-.205-1.797-.618-1.797-3.738V38.137c0-3.121.06-3.622 1.797-3.77l.736-.058c.177-.119.117-.65-.06-.736a86.76 86.76 0 0 1-3.65.085 85.59 85.59 0 0 1-3.711-.085zm-25.111.912c3.268 0 4.712 2.209 4.712 4.535 0 2.002-.677 3.033-1.472 3.65-.855.649-1.974.768-3.035.768-1.502 0-1.944-.06-2.032-.149-.088-.117-.087-.44-.087-.97v-6.89c0-.826.089-.944 1.914-.944zM87.772 63.35c-.823 0-1.702.445-1.702 1.377 0 .853.682 1.117 1.358 1.295.669.178 1.351.26 1.351.751 0 .465-.536.569-.886.569-.535 0-1.008-.237-1.008-.842h-.969c-.012 1.121.931 1.62 1.938 1.62 1.237 0 1.894-.627 1.894-1.462 0-1.032-1.02-1.242-1.351-1.324-1.142-.294-1.358-.34-1.358-.69 0-.382.369-.515.688-.515.478 0 .867.14.898.687h.97c0-1.05-.873-1.466-1.823-1.466zm49.598 0c-1.41 0-2.237 1.053-2.237 2.404 0 1.314.828 2.365 2.237 2.365.44 0 .898-.172 1.25-.625l.101.516h.637v-2.46h-1.912v.747h1.008c-.058.631-.434.98-1.084.98-.9 0-1.237-.764-1.237-1.523 0-.798.338-1.563 1.237-1.563.47 0 .847.264.962.766h.957c-.108-1.032-.988-1.607-1.92-1.607zm25.564 0c-1.41 0-2.239 1.053-2.239 2.404 0 1.314.83 2.365 2.239 2.365s2.236-1.051 2.236-2.365c0-1.351-.828-2.404-2.236-2.404zm60.027 0c-1.41 0-2.239 1.053-2.239 2.404 0 1.314.829 2.365 2.239 2.365 1.115 0 1.9-.726 2.002-1.861h-.97c-.075.599-.421 1.02-1.032 1.02-.9 0-1.239-.765-1.239-1.524 0-.798.339-1.563 1.239-1.563.496 0 .93.345.994.797h.969c-.122-1.051-.963-1.638-1.963-1.638zm-164.28.109l1.205 4.55h1.013l.76-3.097h.012l.771 3.098h.994l1.225-4.551h-.982l-.746 3.137h-.014l-.777-3.137h-.938l-.789 3.098h-.014l-.718-3.098H58.68zm15.982 0l-1.727 4.55h1.014l.357-1.01h1.701l.344 1.01h1.04l-1.702-4.55h-1.027zm24.092 0v4.55h1.002v-1.962h1.841v1.963h1.002v-4.551h-1.002v1.748h-1.841v-1.748h-1.002zm13.139 0v4.55h1.002v-4.55h-1.002zm10.297 0v4.55h.937v-3.046h.012l1.892 3.047h1.002v-4.551h-.937v3.053h-.014l-1.898-3.053h-.994zm26.035 0v.842h1.363v3.709h1V64.3h1.365v-.841h-3.728zm26.04 0v4.55h.938v-3.046h.014l1.892 3.047h1v-4.551h-.937v3.053h-.012l-1.9-3.053h-.994zm33.515 0v4.55h1.962c1.39 0 2.065-.98 2.065-2.3 0-1.51-.885-2.25-2.065-2.25h-1.962zm-44.848.732c.898 0 1.236.765 1.236 1.563 0 .759-.338 1.523-1.236 1.523-.9 0-1.239-.764-1.239-1.523 0-.798.34-1.563 1.239-1.563zm45.848.11h.714c.995 0 1.313.586 1.313 1.504 0 1.007-.555 1.363-1.135 1.363h-.892v-2.867zm-133.62.281h.011l.576 1.67h-1.18l.593-1.67zm112.19 2.447v.98h.459c.012.282-.186.555-.454.6v.46c.548-.083.997-.472.997-1.06v-.98h-1.002z" fill="#004fa2"/><path d="M29.725 7.217l-9.399 23.775c-3.052 7.56-4.48 11.68-9.107 12.096v.784h13.88v-.784c-6.71-1.03-6.742-2.575-3.628-10.586v.072c4.801.679 4.843 1.95 4.963 6.32v9.503c0 3.393-1.282 12.896 11.12 12.896 8.882 0 11.082-5.557 11.202-11.03l.24-9.288c.16-5.6.401-7.977 4.041-8.4v-.637H41.435v.636c5.6.551 6 3.012 6 8.4v1.901c-3.486-.916-4.554-3.984-5.898-7.45L30.415 7.186h-.692zm-1.28 7.56l6.715 17.16H21.693c.302-.77.593-1.512.946-2.403l5.806-14.756zm6.983 17.847l.892 2.28c1.28 3.284 3.545 7.455-3.394 8.185v.783h14.51v1.557c0 5.176.84 13.914-7.8 13.914-10.963 0-9.683-10.944-9.683-11.75v-8.698c0-4.573.522-5.478 5.475-6.271z" fill="#fff"/></svg>