<svg xmlns="http://www.w3.org/2000/svg" width="1024" height="359" viewBox="-2.241 -2.241 225.666 79.187"><path d="M23.101 28c-.121 8.809 2.722 16.895 8.396 24.556l-7.155 6.82c-9.63-9.608-15.763-19.76-18.396-30.733a16.688 16.688 0 0 0 7.911 1.98c3.408 0 6.597-.876 9.244-2.623zM51.42 68.106a151.39 151.39 0 0 1-8.594 6.285 151.562 151.562 0 0 1-8.589-6.285 117.524 117.524 0 0 1-7.673-6.583l6.865-6.562c2.657 3.194 5.69 6.137 9.4 9.135C58.95 51.17 65.218 36.332 61.76 19.51H29.716c.634-1.766.906-3.67.906-5.654 0-2.838-.705-5.512-1.95-7.855h51.714c3.806 23.867-5.85 43.864-28.967 62.105" fill="#00417f"/><path d="M0 13.856C0 6.202 6.204 0 13.856 0c7.653 0 13.856 6.202 13.856 13.856 0 7.653-6.203 13.856-13.856 13.856C6.204 27.712 0 21.51 0 13.856" fill="#aebfd9"/><path d="M156.781 50.531c.908.845 2.618 1.237 4.062 1.237 3.65 0 5.092-2.083 5.092-4.186 0-2.432-1.65-3.587-4.061-4.473l-.66-.248c-1.381-.515-2.535-1.402-2.535-2.639 0-1.505.906-2.618 2.639-2.618 1.772 0 2.762 1.01 3.092 3.092h.639V37.79c-.702-.556-2.103-.908-3.505-.908-2.515 0-4.743 1.258-4.743 3.98 0 2.164 1.733 3.298 3.898 4.06l.371.145c.906.35 2.865 1.3 2.865 3.134 0 1.773-1.133 2.845-2.969 2.845-1.937 0-3.216-1.505-3.731-3.814h-.66l.206 3.3m-7.897.927c3.134 0 5.155-1.134 5.155-4 0-2.433-1.731-3.504-3.733-3.773v-.041c1.939-.391 3.073-1.587 3.073-3.175 0-1.135-.454-1.98-1.278-2.536-.805-.536-2.042-.763-3.65-.743h-5.959v.599c1.815.123 1.857.164 1.857 1.319V49.54c0 1.154-.041 1.195-1.857 1.32v.598h6.392zm-2.494-7.319h1.484c2.557 0 3.958 1.278 3.958 3.462 0 2.476-1.69 3.134-3.463 3.134-1.649 0-1.979-.308-1.979-1.587V44.14zm0-5.196c0-.887.061-1.01 1.669-1.032 1.485-.02 3.155.558 3.155 2.682 0 2.02-1.299 2.825-3.443 2.825h-1.381v-4.475m-12.406-1.34c3.671 0 4.516 3.691 4.557 6.721-.041 3.031-.886 6.721-4.557 6.721-3.669 0-4.514-3.69-4.557-6.721.043-3.03.888-6.721 4.557-6.721zm0-.722c-2.268 0-3.958.7-5.113 2-1.112 1.238-1.752 3.113-1.752 5.443 0 2.309.64 4.206 1.752 5.442 1.155 1.3 2.845 2 5.113 2 2.29 0 3.958-.7 5.113-2 1.134-1.236 1.754-3.133 1.754-5.442 0-2.33-.62-4.205-1.754-5.442-1.155-1.3-2.823-2-5.113-2m-9.234.803c-.929-.432-2.495-.803-4.371-.803-2.535 0-4.577.742-5.814 2.123-1.175 1.32-1.875 3.093-1.875 5.423 0 2.411.72 4.35 1.958 5.586 1.278 1.279 3.298 1.752 5.607 1.752 1.65 0 3.546-.453 4.536-.99l.289-3.442h-.619c-.577 2.144-1.629 3.711-4.329 3.711-4.247 0-5.135-4.185-5.135-6.68 0-3.381 1.34-6.784 5.175-6.762 2.103 0 3.568.866 3.96 3.298h.618v-3.216M112.254 51.46v-.598c-1.195-.104-1.423-.166-1.794-1.237l-4.371-12.433h-1.525l-2.165 6.103c-.639 1.793-1.505 4.268-2.227 6.143-.432 1.114-.618 1.362-1.918 1.424v.598h4.536v-.598l-1.071-.104c-.619-.062-.681-.267-.516-.825.35-1.237.783-2.515 1.258-3.978h4.618l1.382 3.937c.205.599.103.825-.557.887l-.928.083v.598h5.278zm-5.423-6.288h-4.102c.66-2.062 1.382-4.084 2-5.896h.061l2.041 5.896M96.606 39.11c0-1.155.063-1.197 1.857-1.319v-.599H92.71v.599c1.814.122 1.855.164 1.855 1.319v9.525c0 2-.351 2.99-.845 3.587-.455.536-1.196.888-1.917 1.071l.102.517a7.52 7.52 0 0 0 2.598-.639c1.856-.846 2.102-2.558 2.102-4.66V39.11m121.052 35.287v-.598c-2.124-.124-2.185-.185-2.185-1.32v-3.154c0-.496.06-.805.267-1.218 1.051-2.101 2.598-4.988 3.237-6.018.7-1.134.826-1.3 2.207-1.362v-.597h-4.516v.597l1.113.104c.372.04.413.268.248.659-.516 1.237-1.918 4.061-3.01 6.206h-.042c-1.196-2.165-2.267-4.249-3.175-6.226-.165-.371-.082-.578.228-.619l1.216-.124v-.597h-5.34v.597c1.093.041 1.381.165 1.835 1.032 1.154 2.123 2.371 4.41 3.381 6.452.227.433.31.784.31 1.195v3.073c0 1.135-.062 1.196-2.187 1.32v.598h6.412m-16.37-13.546h1.217c2.412 0 2.845.454 3.092 2.701h.619V60.13h-11.896v3.422h.618c.248-2.247.682-2.701 3.093-2.701h1.217v11.627c0 1.156-.062 1.197-2.268 1.32v.6h6.577v-.6c-2.206-.123-2.269-.164-2.269-1.32V60.85m-10.868 1.196c0-1.155.062-1.196 1.856-1.32v-.597h-5.751v.597c1.812.124 1.855.165 1.855 1.32v10.432c0 1.155-.043 1.196-1.855 1.32v.598h5.751v-.599c-1.794-.123-1.856-.164-1.856-1.32v-10.43m-15.09 11.42c.907.846 2.618 1.238 4.062 1.238 3.649 0 5.093-2.083 5.093-4.185 0-2.434-1.65-3.587-4.063-4.475l-.66-.247c-1.381-.516-2.536-1.402-2.536-2.64 0-1.504.907-2.618 2.64-2.618 1.772 0 2.762 1.011 3.091 3.094h.64v-2.908c-.701-.557-2.102-.907-3.505-.907-2.515 0-4.741 1.257-4.741 3.98 0 2.163 1.731 3.297 3.896 4.061l.371.144c.907.35 2.865 1.3 2.865 3.133 0 1.774-1.133 2.846-2.968 2.846-1.938 0-3.215-1.506-3.732-3.814h-.66l.207 3.299m-9.032-5.794c1.237 0 2.185.392 2.535 1.793.145.58.372 2.207.6 3.156.308 1.318 1.092 1.773 2.308 1.773h1.67v-.598c-1.609-.165-1.939-1.32-2.124-2.722-.247-1.835-.619-3.216-2.804-3.752v-.043c1.938-.37 3.36-1.668 3.36-3.627 0-1.979-1.236-3.525-4.845-3.525h-6.018v.597c1.813.124 1.855.165 1.855 1.32v10.432c0 1.155-.042 1.196-1.855 1.32v.598h5.75v-.598c-1.793-.124-1.855-.165-1.855-1.32v-4.804h1.423zm-1.423-.722V61.88c0-.865.145-1.03 1.506-1.03 1.525 0 3.256.556 3.256 2.989 0 2.166-1.134 3.114-3.134 3.114h-1.628m-16.952-6.824v.597c1.815.124 1.857.165 1.857 1.32v10.431c0 1.155-.041 1.197-1.857 1.32v.6h10.928l.247-3.568h-.618c-.474 2.515-1.402 2.845-4 2.845-.969 0-1.71-.041-2.144-.207-.434-.185-.515-.536-.515-1.546v-4.556h2.886c1.753 0 1.835.495 2.02 1.794h.619v-4.35h-.619c-.185 1.277-.267 1.772-2.02 1.772h-2.886v-4.99c0-.659.102-.741.763-.741h2.02c2.35 0 2.824.515 3.113 2.659h.618v-3.38h-10.411m-15.647 0v.597c1.155.041 1.403.124 1.815 1.216a236.236 236.236 0 0 1 2.144 5.855l2.33 6.6h1.464l2.639-7.116c.845-2.287 1.67-4.39 2.165-5.482.432-.969.68-1.01 1.792-1.073v-.597h-4.555v.597l1.134.113c.536.04.556.247.452.638-.226.907-.865 2.72-1.607 4.78l-2.144 5.913-.041-.041-1.918-5.295a205.972 205.972 0 0 1-1.813-5.254c-.165-.515-.104-.7.39-.741l1.073-.113v-.597h-5.32m-3.28 1.917c0-1.155.062-1.196 1.855-1.32v-.597h-5.75v.597c1.815.124 1.856.165 1.856 1.32v10.432c0 1.155-.041 1.196-1.856 1.32v.598h5.752v-.598c-1.793-.124-1.855-.165-1.855-1.32V62.046m-20.452-1.917v.597c1.814.124 1.855.165 1.855 1.32v8.164c0 1.093-.042 1.876-.144 2.556-.124.867-.62.948-1.69 1.032v.598h4.885v-.598c-1.34-.104-1.835-.165-1.959-1.032-.103-.68-.143-1.463-.143-2.556v-8.226h.04c2.948 4.144 5.877 8.267 8.783 12.412h1.362V64.314c0-1.093.04-1.876.143-2.556.124-.867.62-.95 1.692-1.032v-.597h-4.887v.597c1.34.104 1.834.165 1.958 1.032.104.68.145 1.463.145 2.556v7.236l-.041-.041a1921.206 1921.206 0 0 1-8.042-11.38h-3.957m-7.298 0v.597c1.814.124 1.855.165 1.855 1.32v6.68c0 1.958-.308 3.195-.928 4.02-.64.824-1.547 1.237-2.742 1.237-1.175 0-2.082-.413-2.72-1.237-.62-.825-.93-2.062-.93-4.02v-6.68c0-1.155.063-1.196 1.857-1.32v-.597h-5.752v.597c1.814.124 1.855.165 1.855 1.32v7.133c.02 1.216.207 2.309.557 3.01.947 2.02 3.113 2.516 5.133 2.516 2.042 0 4.207-.475 5.154-2.516.351-.721.558-1.814.558-3.051v-7.092c0-1.155.06-1.196 1.855-1.32v-.597h-5.752" fill="#606262"/></svg>