<svg xmlns="http://www.w3.org/2000/svg" height="91.396" viewBox="0 0 267.285 91.396" width="267.28"><path d="M221.162 46.137c0 2.615-2.114 4.45-4.728 4.45s-4.728-1.835-4.728-4.45 2.114-4.45 4.728-4.45 4.728 1.836 4.728 4.45M115.525 75.41h.001c-.003-.12-.007-.241-.007-.371V53.567l-.111-.167-11.07 3.283v.278c.279.11.779.445 1.002.667.945.667 1.501 1.39 1.501 3.337v13.94c0 .295-.008.561-.023.815h-.021l-.002-.025-.001.025c-.009.16-.02.313-.034.459a3.06 3.06 0 0 1-3.023 2.601c-.171 0-.339-.017-.503-.044-.013-.003-.026-.002-.038-.004-.042-.008-.08-.023-.122-.033a3.116 3.116 0 0 1-.431-.125l-.012-.005a3.064 3.064 0 0 1-1.912-2.523c-.002-.01-.002-.021-.003-.033a3.173 3.173 0 0 1-.015-.288h-.007a14.58 14.58 0 0 1-.023-.815V60.971c0-2.441-.511-4.494-1.828-5.824-1.026-1.037-2.54-1.636-4.686-1.636-3.615 0-7.008 2.393-8.566 4.896v.167l.005-.001v.007c.723-.279 1.725-.502 2.615-.502 1.278 0 2.21.306 2.82.972.61.668.902 1.695.902 3.14v12.849c0 .13-.004.251-.007.371a8.453 8.453 0 0 1-.11 1.193c-.273 1.444-1.024 1.969-2.437 2.226v.303l-.006.001v.079h.006v.005h14.13l.002-.005H118.5v-.389c-1.813-.353-2.803-.986-2.974-3.413m-9.152-29.241c0 2.614 2.114 4.45 4.728 4.45s4.728-1.836 4.728-4.45c0-2.616-2.114-4.451-4.728-4.451s-4.728 1.835-4.728 4.45M53.745 70.59l-.001-17.022-.112-.167-11.07 3.283v.278c.278.11.78.445 1 .667.946.667 1.476 1.39 1.476 3.337v11.183c0 5.005 2.533 7.454 7.039 7.454 4.282 0 6.452-2.559 7.676-5.063v-.223c-.722.39-1.557.613-2.558.613-2.56 0-3.45-1.224-3.45-4.34m30.629 4.821c-.003-.12-.006-.241-.006-.371V53.567l-.113-.167-11.07 3.283v.278c.28.11.78.445 1.002.667.946.667 1.503 1.39 1.503 3.337v13.94a14.01 14.01 0 0 1-.065 1.33 3.06 3.06 0 0 1-3.014 2.545c-.022 0-.044-.003-.067-.003v-.005A3.054 3.054 0 0 1 69.6 75.72h-.003V53.567l-.111-.167-11.07 3.283v.278c.279.11.779.445 1.002.667.945.667 1.501 1.39 1.501 3.337v18.247h26.063v-.389c-1.8-.319-2.541-1.043-2.608-3.413m60.772-20.731v-.445h-10.045v.445c2.053.167 3.163 1.22 3.163 3.385 0 1.333-.666 3.276-.833 3.608l-2.333 5.897.267.666 2.51-6.174c1.943-4.274 4.83-6.994 7.271-7.382m-15.188 2.275c0-1.276.999-2.108 2.498-2.275v-.445H116.97v.445c1.998.332 3.22 1.61 4.606 4.83l8.381 19.87h.666l4.109-9.547-3.886-9.714c-.444-1.277-.889-2.443-.889-3.164m45.76 18.456c-.003-.12-.008-.241-.008-.371V53.567l-.11-.167-11.07 3.283v.278c.278.11.778.445 1.001.667.946.667 1.501 1.39 1.501 3.337v13.63a14.078 14.078 0 0 1-.063 1.33c-.245 1.444-1.5 2.898-3.014 2.898h-.067v.389h14.438v-.389c-1.8-.319-2.541-1.043-2.608-3.413m10.36-21.58c-.002-.001-.004-.001-.005-.003a4.247 4.247 0 0 0-.317-.12c-.017-.004-.036-.011-.053-.016-.03-.01-.062-.015-.092-.024-.662-.166-1.372-.087-1.774-.017-3.765.744-6.788 3.784-7.037 9.682h.458s.24-1.154 1.138-1.612c.926-.473 1.851-.69 6.245-.69 2.012 0 3.752-1.686 3.752-3.753 0-1.509-.977-2.864-2.316-3.447m70.23.38v.444c2.054.167 3.164 1.222 3.164 3.386 0 1.333-.666 3.275-.833 3.608l-2.492 5.897.266.666 2.67-6.174c1.943-4.274 4.83-6.994 7.271-7.383v-.444h-10.047zm-1.295 13.73l-3.137-7.846c-.444-1.277-.888-2.443-.888-3.164 0-1.276.998-2.109 2.497-2.276v-.444h-17.819v-9.092l-.112-.168-8.567 2.54v6.72h-3.895v.771h3.88v6.013l-.006-.01v13.933c0 .276-.009.526-.02.765l-.004.051a8.78 8.78 0 0 1-.04.514 3.06 3.06 0 0 1-3.014 2.546c-.023 0-.045-.003-.067-.004v-.005a3.054 3.054 0 0 1-2.54-1.534 3.06 3.06 0 0 1-.32-.825 8.16 8.16 0 0 1-.082-.692h.002c-.003-.121-.007-.241-.007-.371V53.584l-.112-.165-11.07 3.28v.28c.28.11.78.444 1.002.666.946.668 1.501 1.39 1.501 3.339v13.628c0 .295-.008.563-.022.815h-.022l-.001-.025-.002.025a9.85 9.85 0 0 1-.034.459c-.223 1.471-1.364 2.954-2.897 2.954v.389h29.041v-.389c-1.64-.29-2.398-.921-2.57-2.823V54.981h1.912c.504.01 2.058.125 2.931 1.117.689.759 1.314 1.849 1.976 3.386l7.265 17.223c.409 1.087.741 2.055.996 2.945l-1.076 2.49-.02.048c-.761 1.703-2.344 2.123-3.003 2.227-.931.114-2.262.171-4.29.154-1.8-.014-3.37 1.483-3.385 3.333-.004.656.199 1.28.546 1.81.208.3.68.828 1.563 1.128.01.005.022.008.035.012.062.021.127.04.193.057.786.213 1.891.28 3.294-.209a7.026 7.026 0 0 0 1.877-1.167c.722-.624 1.34-1.421 1.823-2.395.15-.306.29-.625.413-.965l2.315-5.394 2.577-6.24 2.095-4.885-.712-1.717zm-54.77-13.933c3.194.437 5.963 4.503 6.961 8h.389l-.277-7.438c-.887-.333-4.409-.95-7.073-.95v.388zm1.31 8.721c-2.608-1.61-5.44-2.997-5.44-5.55 0-1.888 1.583-2.88 2.693-3.16v-.388c-5.328.5-9.298 3.714-9.298 8.1 0 4.662 3.331 6.826 6.55 8.713 2.942 1.666 5.495 3.109 5.495 5.44 0 1.753-.806 2.774-2.034 3.263a3.945 3.945 0 0 1-.447.15 3.042 3.042 0 0 1-.155.038l-.124.029c-1.457.277-2.647-.403-2.975-.616-2.377-1.59-5.356-5.425-6.199-8.47h-.388l.277 7.937c1.227.545 3.83 1.202 6.105 1.422l.016.001c2.244.256 3.947 0 3.947 0v-.005c5.49-.61 8.86-3.567 8.86-8.689 0-3.664-3.22-5.995-6.883-8.215m-37.304 7.61c-1.278 1.781-3.282 3.06-6.73 3.06-4.45 0-7.482-2.689-7.943-8.264h14.019c1.027-7.506-3.446-11.285-9.708-11.587v.49c1.381.499 2.45 4.297 2.204 9.994l-6.551.617a18.854 18.854 0 0 1-.033-1.041c0-6.061 1.257-8.736 2.957-9.543l.014-.511c-6.762.963-11.705 6.122-11.705 13.615 0 6.452 4.061 12.516 12.24 12.516 7.676 0 10.846-6.008 11.57-9.123l-.334-.223zM80.164 9.239c2.614 0 4.728-1.835 4.728-4.45S82.778.34 80.164.34s-4.728 1.835-4.728 4.45 2.114 4.45 4.728 4.45m117.883-4.45c0-2.615 2.114-4.45 4.728-4.45s4.728 1.835 4.728 4.45-2.114 4.45-4.728 4.45-4.728-1.835-4.728-4.45m12.126 32.655v.388h-14.574v-.388c2.07-.383 2.859-1.037 2.89-4.044V19.586c0-1.947-.557-2.67-1.502-3.337a3.926 3.926 0 0 0-1.002-.669v-.277l11.071-3.282.111.167v21.027h.003c0 3.116 1.002 3.839 3.003 4.229M57.353 33.55c1 0 1.835-.223 2.558-.613v.223c-1.225 2.502-3.393 5.06-7.677 5.06-4.506 0-7.038-2.446-7.038-7.452V19.586c0-1.947-.529-2.67-1.475-3.337a3.956 3.956 0 0 0-1.001-.669v-.277l11.07-3.282.11.167.004 17.022c0 3.115.888 4.34 3.448 4.34m107.303 3.894v.388H135.53v-.388c1.748-.319 2.485-1.043 2.552-3.413.004-.121.007-.241.007-.371V20.81c0-2.893-1.168-4.117-3.727-4.117-.89 0-1.891.223-2.614.502v-.167c1.557-2.503 4.95-4.896 8.565-4.896 4.896 0 6.51 3.116 6.51 7.454v13.94c0 .25.007.48.017.702l.006.113c.013.221.028.431.053.624a3.057 3.057 0 0 0 6.017-.166 10.357 10.357 0 0 0 .037-.485l.001.027h.021c.013-.254.023-.521.023-.816V19.586c0-1.947-.557-2.67-1.501-3.337a3.974 3.974 0 0 0-1.001-.669v-.277l11.07-3.282.11.167V33.66c0 .13.003.25.006.371.172 2.427 1.16 3.06 2.974 3.413M152.527 4.79c0-2.616 2.115-4.452 4.729-4.452 2.615 0 4.728 1.836 4.728 4.452 0 2.614-2.113 4.45-4.728 4.45-2.614 0-4.729-1.836-4.729-4.45m-50.534 32.654v.388H61.076V19.586c0-1.947-.555-2.67-1.501-3.337-.223-.223-.723-.557-1.002-.669v-.277l11.07-3.282.111.167V33.97l.002.37h.001c0 .552.149 1.07.404 1.517a3.056 3.056 0 0 0 5.632-.815 3.07 3.07 0 0 0 .084-.701h.006l.001-.816V19.586c0-1.947-.556-2.67-1.501-3.337-.223-.223-.723-.557-1.002-.669v-.277l11.07-3.282.111.167V33.97c0 .031.002.294.002.67a3.059 3.059 0 0 0 6.103-.3h.01c.013-.253.022-.52.022-.815V19.586c0-1.947-.556-2.67-1.501-3.337-.223-.223-.723-.557-1.002-.669v-.277l11.07-3.282.111.167V33.66c0 .13.004.25.007.371.067 2.37.809 3.094 2.609 3.413m31.144 0v.388h-28.752v-.388c1.746-.319 2.485-1.043 2.552-3.413.003-.121.005-.241.005-.371V20.81c0-2.893-1.167-4.117-3.726-4.117-.89 0-1.892.223-2.615.502v-.167c1.559-2.503 4.952-4.896 8.567-4.896 4.896 0 6.508 3.116 6.508 7.454v13.94c0 .294.01.56.025.815h.007a3.167 3.167 0 0 0 .017.32 3.058 3.058 0 0 0 6.055.194 10.44 10.44 0 0 0 .045-.565c.011-.239.02-.489.02-.765V19.586c0-1.947-.558-2.67-1.503-3.337a3.925 3.925 0 0 0-1-.669v-.277l11.07-3.282.11.167V33.66c0 .13.004.25.008.371.067 2.37.807 3.094 2.607 3.413m101.87-2.866c.556 0 1.112-.223 1.39-.39v.223c-.722 1.891-2.837 3.894-6.34 3.894-2.108 0-3.642-.691-4.592-2.033-.754-1.067-1.138-2.545-1.138-4.42V26.29c0-.687-.033-1.33-.082-1.949l-1.198.446c-.946.39-2.17.89-2.726 1.67-.557.834-.89 2.113-.89 3.393 0 3.448.779 4.56 2.447 4.56.294 0 .627-.05.924-.13.322-.083.6-.199.745-.315v.223c-.286.859-1.356 2.311-3.027 3.241a6.764 6.764 0 0 1-3.314.876c-4.173 0-6.342-2.781-6.342-6.23 0-1.245.28-2.312.682-3.16 1.036-1.724 3.177-2.482 4.022-2.724l.358-.092h-.002l.006-.002c2.291-.588 5.495-1.364 7.124-1.771v.003l1.168-.302c-.517-5.585-3.01-8.307-6.762-8.307-.89 0-1.892.166-2.559.5v-.167c1.112-1.612 4.673-3.894 8.121-3.894.276 0 .543.01.805.024 6.73.369 9.178 5.39 9.178 11.547v8.511c0 1.67.667 2.337 2.001 2.337m-40.158-10.875c0 4.391-1.494 8.332-5.02 11.02h.005a.244.244 0 0 0-.02.014c-1.056.802-2.293 1.491-3.726 2.048a17.91 17.91 0 0 1-3.583 1.023c-.04.007-.078.017-.117.024v-.003a17.88 17.88 0 0 1-1.614.2c-2.954.237-5.007-.308-5.007-.308v5.364c0 2.893 1.169 3.95 3.617 4.338v.39l-12.35 3.661V19.753c0-2.003-.5-2.67-1.502-3.394l-1.057-.667v-.279l11.126-3.337.166.167V30.49c0 1.724.223 3.671 1.28 5.117.374.538.852.952 1.377 1.271a5.385 5.385 0 0 0 1.141.519c.32.087.653.137 1 .137.923 0 1.766-.333 2.428-.88.481-.445 1.458-1.677 2.087-4.7.344-1.664.534-3.598.534-5.693 0-7.12-2.059-10.57-6.286-10.57-.89 0-1.647.168-2.314.502v-.167c1.113-1.613 4.429-3.894 7.877-3.894 7.343 0 9.958 5.174 9.958 11.57m66.275 5.536c-.724 3.114-3.894 9.123-11.57 9.123-8.179 0-12.24-6.064-12.24-12.517 0-7.492 4.928-12.602 11.691-13.565v.462c-1.7.807-2.957 3.48-2.957 9.543 0 6.62 3.171 9.791 8.011 9.791 3.448 0 5.451-1.28 6.731-3.06l.334.223zm-10.7-16.563v-.48c5.908-.107 7.972 2.047 8.77 4.46.293.883.303 3.364-2.274 3.632-1.512.159-2.888-.96-3.055-2.43-.366-3.214-.753-3.895-1.269-4.554s-2.173-.628-2.173-.628M49.718 43.976c-.538 1.029-1.654 2.279-3.202 3.279-2.206 1.425-5.189 2.54-8.25 2.54-.397 0-.791-.015-1.181-.04h-.002l-.313-.023c-3.118-.245-5.54-1.005-8.87-2.069-4.475-1.416-6.967-2.095-9.629-2.095-1.757 0-3.002.347-3.795.744v-.292c.478-.915 1.457-1.932 2.76-2.85l.004-.004s5.39-3.975 6.035-4.461c.645-.484 1.384-1.036 1.719-1.306.334-.271.721-.671.865-.807 2.277-2.145 3.553-6.424 3.553-15.169 0-8.878-1.357-15.155-5.598-17.53-.849-.453-1.98-.72-2.941-.832l-.248-.026a8.021 8.021 0 0 0-.645-.034c-.38 0-.743.057-1.086.117-.678.113-1.98.492-2.771 1.17-2.602 1.98-4.071 6.221-4.071 15.608 0 8.822 1.414 15.1 5.598 17.532.904.451 1.98.791 2.941.904v.453c-12.102-.51-19.567-7.974-19.567-18.21 0-11.193 9.379-17.13 17.859-17.981v-.001c.004 0 .007 0 .011-.002.306-.026.617-.047.936-.056.338-.008.684 0 1.035 0h.008c12.102.453 19.623 7.917 19.623 18.154 0 7.724-4.421 12.916-9.938 15.706h.003l-9.636 4.85c.003-.002.005-.003.008-.003 1.568-.579 3.292-.943 5.042-.943.397 0 .792.013 1.181.04h.002l.396.029c3.078.251 5.488 1.008 8.786 2.061 4.476 1.417 6.969 2.097 9.63 2.097 1.757 0 2.833-.397 3.625-.794l.123.244z" fill="#08164e"/></svg>