<svg xmlns="http://www.w3.org/2000/svg" height="49.812" viewBox="0 0 108.35 49.813" width="108.35"><path d="M56.628 25.397l-.823.93c-.352.4-.538.783-.538 1.37v.098H54.7l-.294.343v.166h.862v3.612l-.685.098.049.343 1.125-.03 1.518.03.048-.373-1.125-.068v-3.612h1.223v-.46h-1.223v-.294c0-.636.068-.92.205-1.106l.186-.264h1.273v-.783h-1.234zm-55.633.088l-.049.343.882.127v3.974c0 1.556.684 2.594 2.612 2.594 1.948-.45 2.468-1.302 2.468-2.575v-3.994l.832-.126-.05-.343-1.145.029-1.253-.03-.049.344.881.126v4.092c0 1.253-.568 1.939-1.586 1.939-1.116 0-1.634-.696-1.634-1.909v-4.122l.832-.126-.05-.343-1.34.029-1.351-.03zm14.343.059l-.705.049-.097.47.058.548.264.059.696-.059.107-.47-.049-.548-.274-.05zm20.81 0l-.704.049-.098.47.059.548.263.059.696-.059.107-.47-.049-.548-.274-.05zm2.729.979l-.636.636v.636h-.637l-.342.343v.166h.949v2.917c0 .881.147 1.273 1.243 1.273l1.145-.636-.166-.333c-.274.136-.49.234-.774.234-.41 0-.518-.303-.518-.586v-2.869h1.468v-.44h-1.478v-1.341h-.254zm-14.735 1.076c-1.341.294-2.212 1.068-2.212 2.516 0 1.537 1.067 2.379 2.252 2.379.626-.177 1.242-.45 1.712-.774l-.156-.372c-.362.225-.833.411-1.224.411-1.028 0-1.625-.793-1.625-1.908h2.985v-.412c0-1.027-.44-1.84-1.732-1.84zm8.385 0c-1.136.245-1.772.627-1.772 1.312 0 .548.402.92.823 1.135l.773.402c.509.264.714.43.714.812 0 .412-.264.744-.783.744-.313 0-.596-.107-.802-.245l-.333-.812h-.627l.186 1.106c.255.147.89.44 1.488.44 1.126-.244 1.84-.577 1.84-1.458 0-.558-.264-.93-.92-1.262l-.753-.382c-.44-.225-.685-.422-.685-.735 0-.372.362-.577.743-.577.353 0 .646.157.744.216l.226.724h.518v-.979a2.62 2.62 0 0 0-1.38-.44zm19.227 0c-1.517.255-2.408 1.087-2.408 2.555 0 1.332.881 2.34 2.183 2.34 1.517-.245 2.408-1.087 2.408-2.545 0-1.331-.88-2.35-2.183-2.35zm-40.695 0l-1.448.95-.05-.822-.42.029-1.175.303.05.343.684-.059v3.573l-.685.098.05.343 1.125-.03.93.03.049-.343-.538-.098V29.02l.293-.196c.333-.225.676-.44 1.018-.44.421 0 .647.225.647.734v2.799l-.49.098.049.342.94-.029 1.125.03.049-.343-.744-.098v-2.721c0-1.175-.206-1.595-1.459-1.595zm18.166.05l-1.116 1.37-.02-1.292-.391.029-1.175.303.049.343.685-.06v3.574l-.685.098.049.343 1.096-.03 1.42.03.049-.372-1.028-.098v-2.33l.195-.235c.265-.323.695-.646.93-.695h.725v-.978h-.783zm-13.662.068l-.489.039-1.175.303.05.343.684-.059v3.573l-.684.098.048.343 1.126-.03 1.125.03.05-.343-.735-.098v-4.2zm20.81 0l-.489.039-1.175.303.049.343.686-.059v3.573l-.686.098.05.343 1.125-.03 1.125.03.05-.343-.735-.098v-4.2zm-19.873.02l-.049.342.607.098 1.703 4.317.715-.294 1.605-4.023.627-.098-.05-.342-.812.029-.86-.03-.05.343.45.098-1.184 3.543-.078-.675-1.068-2.868.646-.098-.048-.343-1.028.03-1.126-.03zm24.652 0l-.049.342.607.098 1.595 4.13.392-.117-.97 1.478h-.841v.979h1.165l1.096-2.467 1.537-4.003.627-.098-.05-.343-.812.03-.861-.03-.05.343.45.098-1.164 3.543-.078-.675-1.037-2.868.645-.098-.049-.343-1.027.03-1.126-.03zm10.357.342c.852 0 1.449.832 1.449 2.075 0 1.058-.402 1.86-1.184 1.86-.872 0-1.45-.95-1.45-2.065 0-1.067.392-1.87 1.185-1.87zm-27.552.01c.753 0 .9.519.9 1.272l-1.958.098c.079-.812.46-1.37 1.058-1.37zm-4.555 7.772c-3.951 0-6.657 2.634-6.657 6.497s2.706 6.497 6.657 6.497c1.674 0 3.098-.445 4.38-1.389l-.98-1.388c-1.05.748-2.207 1.14-3.453 1.14-2.866 0-4.86-1.976-4.86-4.86 0-2.884 1.994-4.86 4.86-4.86 1.246 0 2.403.391 3.453 1.14l.98-1.39c-1.282-.943-2.706-1.388-4.38-1.388zm29.605 0c-3.951 0-6.657 2.634-6.657 6.497s2.706 6.497 6.657 6.497c1.674 0 3.098-.445 4.38-1.389l-.98-1.388c-1.05.748-2.207 1.14-3.453 1.14-2.866 0-4.86-1.976-4.86-4.86 0-2.884 1.994-4.86 4.86-4.86 1.246 0 2.403.391 3.453 1.14l.98-1.39c-1.282-.943-2.706-1.388-4.38-1.388zm41.273 0l-5.821 12.727h1.797l1.55-3.489h5.126l1.549 3.489h1.797l-5.82-12.727h-.178zm-60.305.088v12.64h1.602v-7.032c0-1.015-.053-1.745-.16-2.225l.053-.018c.178.392.57.961.98 1.388l7.6 8.064h.142V36.128H38.59v7.013c0 1.033.072 1.762.179 2.243l-.072.018c-.16-.392-.551-.961-.979-1.389l-7.583-8.064h-.16zm29.607 0v12.64h1.602v-7.032c0-1.015-.053-1.745-.16-2.225l.053-.018c.178.392.57.961.98 1.388l7.6 8.064h.143V36.128h-1.602v7.013c0 1.033.07 1.762.178 2.243l-.072.018c-.16-.392-.551-.961-.979-1.389l-7.583-8.064h-.16zm13.086 0v12.64h1.603v-7.032c0-1.015-.054-1.745-.16-2.225l.053-.018c.178.392.57.961.979 1.388l7.6 8.064h.143V36.128h-1.602v7.013c0 1.033.071 1.762.178 2.243l-.071.018c-.16-.392-.552-.961-.98-1.389L72.83 35.95h-.16zm-47.125.179v12.46h1.602v-12.46h-1.602zm29.605 0v12.46h1.602v-12.46h-1.602zm40.153 0v1.53h3.204c.213 0 .32 0 .445-.053l.036.035c-.036.09-.054.232-.054.428v10.52h1.602v-10.52c0-.196-.018-.339-.053-.428l.017-.035c.125.053.25.053.463.053h3.187v-1.53H95.3zm10.393 0v12.46h1.602v-12.46h-1.602zm-15.361 2.545h.071c.036.32.197.819.446 1.46l1.103 2.599c.232.551.41.836.552 1.014l-.018.018a9.548 9.548 0 0 0-.997-.035h-2.242a9.58 9.58 0 0 0-.998.035l-.017-.018c.142-.178.32-.463.552-1.014l1.103-2.6c.25-.64.41-1.139.445-1.459z"/><path d="M59.615 1.043v1.746h3.136v15.218c0 6.098 3.974 9.264 10.024 9.364 2.313 2.572 5.588 4.367 9.307 4.898.293.043.573.073.805.093v-1.734c-.3-.052-.507-.1-.507-.1-5.7-1.45-9.903-6.302-9.903-12.52 0-4.765 2.786-8.618 6.9-10.778V4.888c-5.913 1.937-10.154 6.937-10.154 13.12 0 3.057.798 5.446 2.187 7.586-3.657-.643-5.233-3.194-5.233-7.586V1.043h-6.561zm17.283.009v1.745h5.984V1.052h-5.984zm7.927 3.04c-.66 0-1.311.039-1.951.116l.012 13.8c0 2.683-.387 4.267-1.76 5.956-1.512-1.667-1.75-3.561-1.75-5.957l.001-7.348c-2.006 1.94-3.26 4.35-3.26 7.348 0 6.273 4.844 11.171 10.755 11.171 2.028 0 4.368-.496 6.076-1.657l-.431-.643c-2.304 1.176-6.982 1.45-9.84-1.226 2.416-1.783 3.635-4.066 3.635-7.645V5.731c4.047 0 6.474 2.407 6.605 5.166l1.505.296 1.055-6.142-1.792-.349-.22 1.311c-3.232-1.626-5.944-1.92-8.64-1.92z" fill="#e00122"/></svg>